<?xml version="1.0" encoding="UTF-8"?>
<!DOCTYPE svg PUBLIC "-//W3C//DTD SVG 1.1//EN" "http://www.w3.org/Graphics/SVG/1.1/DTD/svg11.dtd">
<svg xmlns="http://www.w3.org/2000/svg" version="1.1" width="100px" height="100px" style="shape-rendering:geometricPrecision; text-rendering:geometricPrecision; image-rendering:optimizeQuality; fill-rule:evenodd; clip-rule:evenodd" xmlns:xlink="http://www.w3.org/1999/xlink">
<g><path style="opacity:0.645" fill="#f1eded" d="M 29.5,-0.5 C 31.8333,-0.5 34.1667,-0.5 36.5,-0.5C 37.0388,1.50494 37.7055,3.50494 38.5,5.5C 42.6044,3.46423 46.9378,2.46423 51.5,2.5C 51.3505,3.55198 51.5172,4.55198 52,5.5C 53.439,3.55197 55.2723,2.21864 57.5,1.5C 60.8903,2.86789 64.2236,4.20123 67.5,5.5C 75.7585,4.54544 84.0919,3.87877 92.5,3.5C 92.5,5.83333 92.5,8.16667 92.5,10.5C 86.8791,11.3537 81.2124,11.687 75.5,11.5C 73.5,11.8333 71.5,12.1667 69.5,12.5C 68.8333,12.5 68.1667,12.5 67.5,12.5C 65.901,12.2322 64.5676,12.5655 63.5,13.5C 60.8033,12.3697 58.1367,12.3697 55.5,13.5C 53.7376,13.3573 52.0709,13.6906 50.5,14.5C 48.8045,13.8256 47.1379,13.1589 45.5,12.5C 45.1667,11.1667 44.8333,11.1667 44.5,12.5C 43.1667,12.5 41.8333,12.5 40.5,12.5C 38.1667,12.8333 36.8333,14.1667 36.5,16.5C 37.7979,18.9088 37.1313,20.5755 34.5,21.5C 33.8333,21.5 33.1667,21.5 32.5,21.5C 31.8333,20.1667 31.1667,18.8333 30.5,17.5C 28.7839,17.6287 27.1172,17.962 25.5,18.5C 21.1666,16.3857 19.1666,17.719 19.5,22.5C 19.1667,23.5 18.5,24.1667 17.5,24.5C 13.8773,23.2531 10.2107,21.9197 6.5,20.5C 6.16667,19.5 5.83333,18.5 5.5,17.5C 7.05185,13.0437 7.88519,8.37707 8,3.5C 12.0974,0.961399 16.0974,0.961399 20,3.5C 22.9677,1.48893 26.1343,0.155594 29.5,-0.5 Z"/></g>
<g><path style="opacity:1" fill="#391214" d="M 32.5,0.5 C 33.8182,3.25751 34.4848,6.42418 34.5,10C 34.1667,13.1667 33.8333,16.3333 33.5,19.5C 32.5037,13.2015 32.1703,6.86818 32.5,0.5 Z"/></g>
<g><path style="opacity:0.709" fill="#360d10" d="M 55.5,-0.5 C 56.5,-0.5 57.5,-0.5 58.5,-0.5C 62.2802,0.230394 65.2802,2.23039 67.5,5.5C 64.2236,4.20123 60.8903,2.86789 57.5,1.5C 55.2723,2.21864 53.439,3.55197 52,5.5C 51.5172,4.55198 51.3505,3.55198 51.5,2.5C 52.8717,1.48837 54.205,0.488369 55.5,-0.5 Z"/></g>
<g><path style="opacity:1" fill="#441e1f" d="M 13.5,3.5 C 14.8221,3.33003 15.9887,3.66337 17,4.5C 19.197,10.7565 17.0303,13.7565 10.5,13.5C 10.2767,11.6583 9.94337,9.82498 9.5,8C 10.1666,5.84949 11.4999,4.34949 13.5,3.5 Z"/></g>
<g><path style="opacity:1" fill="#431e1f" d="M 45.5,5.5 C 47.1667,5.5 48.8333,5.5 50.5,5.5C 50.3433,6.87344 50.51,8.20677 51,9.5C 54.4044,8.27289 57.9044,7.27289 61.5,6.5C 62.7412,7.03724 63.9079,7.7039 65,8.5C 68.5175,7.87344 72.0175,7.20677 75.5,6.5C 76.6039,7.63128 76.2705,8.46461 74.5,9C 69.3187,10.131 64.152,10.2977 59,9.5C 56.1485,10.0879 53.3152,10.7545 50.5,11.5C 49.0137,10.1859 47.347,9.18592 45.5,8.5C 42.9719,9.94153 40.3053,10.4415 37.5,10C 40.0993,8.20496 42.7659,6.70496 45.5,5.5 Z"/></g>
<g><path style="opacity:0.947" fill="#f2efef" d="M 12.5,6.5 C 13.5,6.5 14.5,6.5 15.5,6.5C 15.5,7.83333 15.5,9.16667 15.5,10.5C 14.5,10.5 13.5,10.5 12.5,10.5C 12.5,9.16667 12.5,7.83333 12.5,6.5 Z"/></g>
<g><path style="opacity:1" fill="#3a1315" d="M 85.5,6.5 C 87.1992,6.33982 88.8659,6.50649 90.5,7C 88.4153,9.13914 86.7487,8.97247 85.5,6.5 Z"/></g>
<g><path style="opacity:1" fill="#3f191a" d="M 79.5,6.5 C 80.9778,6.23798 82.3112,6.57131 83.5,7.5C 81.9255,8.63088 80.2588,8.79755 78.5,8C 79.056,7.61742 79.3893,7.11742 79.5,6.5 Z"/></g>
<g><path style="opacity:1" fill="#441e1f" d="M 24.5,3.5 C 26.5,3.5 28.5,3.5 30.5,3.5C 31.2881,7.71016 29.6214,10.3768 25.5,11.5C 26.7757,12.6446 28.109,12.6446 29.5,11.5C 30.521,12.0016 30.6877,12.6683 30,13.5C 28.103,15.0163 25.9363,15.683 23.5,15.5C 23.3379,13.4727 23.5045,11.4727 24,9.5C 25.4866,8.84484 26.6533,7.84484 27.5,6.5C 25.8827,6.33056 24.216,5.99723 22.5,5.5C 23.2427,4.81815 23.9094,4.15149 24.5,3.5 Z"/></g>
<g><path style="opacity:1" fill="#90716f" d="M 40.5,12.5 C 41.5,13.1667 42.5,13.8333 43.5,14.5C 40.9242,14.4679 38.5909,15.1346 36.5,16.5C 36.8333,14.1667 38.1667,12.8333 40.5,12.5 Z"/></g>
<g><path style="opacity:1" fill="#3a1416" d="M 16.5,13.5 C 20.2998,13.8194 20.4665,14.8194 17,16.5C 16.7978,18.2556 16.2978,19.9223 15.5,21.5C 14.5713,20.3112 14.238,18.9778 14.5,17.5C 12.4012,18.2309 10.4012,18.2309 8.5,17.5C 10.9107,15.5896 13.5774,14.2562 16.5,13.5 Z"/></g>
<g><path style="opacity:1" fill="#ecdcd6" d="M 43.5,14.5 C 50.8849,14.7174 58.2183,16.0507 65.5,18.5C 75.2137,23.7575 80.2137,31.9242 80.5,43C 80.5571,45.9597 80.0571,48.793 79,51.5C 78.8704,43.6476 76.8704,36.3142 73,29.5C 72.3457,28.3044 71.8457,28.3044 71.5,29.5C 75.8407,36.5775 77.5074,44.2442 76.5,52.5C 75.5,51.8333 74.5,51.1667 73.5,50.5C 72.7784,50.0825 72.2784,49.4158 72,48.5C 70.2825,52.6064 67.6159,55.9397 64,58.5C 63.5005,52.1754 63.3338,45.8421 63.5,39.5C 62.3421,38.4274 62.3421,37.2607 63.5,36C 63.3865,34.7202 62.7199,33.8869 61.5,33.5C 60.8328,36.9773 60.1661,40.3107 59.5,43.5C 54.821,39.9806 51.9877,35.3139 51,29.5C 50.1208,32.8185 49.2875,36.1518 48.5,39.5C 47.8165,39.1373 47.1499,38.8039 46.5,38.5C 44.4365,35.5472 43.1031,35.8805 42.5,39.5C 42.5,40.5 42.5,41.5 42.5,42.5C 41.6618,42.8417 41.3284,43.5084 41.5,44.5C 41.5,46.1667 41.5,47.8333 41.5,49.5C 35.5992,48.0353 33.5992,44.3687 35.5,38.5C 34.0451,36.7801 33.2117,34.7801 33,32.5C 32.6667,33.5 32.3333,34.5 32,35.5C 29.0543,37.4305 26.5543,39.7639 24.5,42.5C 24.728,40.6453 24.0613,39.8119 22.5,40C 21.7556,41.8148 21.0889,43.6481 20.5,45.5C 19.6274,49.7685 19.2941,54.1018 19.5,58.5C 17.7363,59.7122 16.0697,59.3788 14.5,57.5C 12.2959,53.1575 11.9626,48.6575 13.5,44C 12.65,42.7141 11.4834,42.8808 10,44.5C 10.2194,38.8522 12.2194,33.8522 16,29.5C 20.6979,25.1048 25.5313,21.1048 30.5,17.5C 31.1667,18.8333 31.8333,20.1667 32.5,21.5C 33.1667,24.1667 33.8333,24.1667 34.5,21.5C 37.1313,20.5755 37.7979,18.9088 36.5,16.5C 38.5909,15.1346 40.9242,14.4679 43.5,14.5 Z"/></g>
<g><path style="opacity:1" fill="#ebd6d1" d="M 80.5,74.5 C 81.0705,66.846 81.4038,59.1793 81.5,51.5C 83.5761,43.0141 82.4094,35.0141 78,27.5C 74.2242,23.5527 70.3909,19.886 66.5,16.5C 69.0351,15.6513 71.5351,14.6513 74,13.5C 76.654,14.8207 78.654,16.8207 80,19.5C 87.2724,33.8186 92.4391,48.8186 95.5,64.5C 92.8333,63.8333 90.1667,63.1667 87.5,62.5C 86.695,67.4501 84.3617,71.4501 80.5,74.5 Z"/></g>
<g><path style="opacity:1" fill="#7c5d5b" d="M 32.5,21.5 C 33.1667,21.5 33.8333,21.5 34.5,21.5C 33.8333,24.1667 33.1667,24.1667 32.5,21.5 Z"/></g>
<g><path style="opacity:1" fill="#4f2727" d="M 59.5,43.5 C 59.5,43.8333 59.5,44.1667 59.5,44.5C 59.6107,45.1174 59.944,45.6174 60.5,46C 57.633,46.8007 54.9664,46.6341 52.5,45.5C 54.5273,45.6621 56.5273,45.4955 58.5,45C 56.4553,42.4915 54.122,41.9915 51.5,43.5C 49.5154,43.8586 48.8487,44.692 49.5,46C 48.552,46.4828 47.552,46.6495 46.5,46.5C 47.1236,44.4947 46.2903,42.8281 44,41.5C 43.6667,42.1667 43.3333,42.8333 43,43.5C 42.6012,43.2716 42.4346,42.9382 42.5,42.5C 42.5,41.5 42.5,40.5 42.5,39.5C 43.1174,39.3893 43.6174,39.056 44,38.5C 44.2784,39.4158 44.7784,40.0825 45.5,40.5C 46.1451,41.8118 47.1451,42.8118 48.5,43.5C 49.6394,41.6043 48.9728,40.6043 46.5,40.5C 45.4937,39.6043 45.4937,38.9377 46.5,38.5C 47.1499,38.8039 47.8165,39.1373 48.5,39.5C 49.2875,36.1518 50.1208,32.8185 51,29.5C 51.9877,35.3139 54.821,39.9806 59.5,43.5 Z"/></g>
<g><path style="opacity:1" fill="#be8a83" d="M 50.5,36.5 C 51.9335,37.8333 53.2668,39.3333 54.5,41C 51.4981,41.2286 50.1647,39.7286 50.5,36.5 Z"/></g>
<g><path style="opacity:1" fill="#c38e8b" d="M 63.5,39.5 C 62.6909,41.2922 62.1909,43.2922 62,45.5C 61.3292,44.7476 60.4959,44.4142 59.5,44.5C 59.5,44.1667 59.5,43.8333 59.5,43.5C 60.1661,40.3107 60.8328,36.9773 61.5,33.5C 62.7199,33.8869 63.3865,34.7202 63.5,36C 62.3421,37.2607 62.3421,38.4274 63.5,39.5 Z"/></g>
<g><path style="opacity:0.996" fill="#937673" d="M 46.5,38.5 C 45.4937,38.9377 45.4937,39.6043 46.5,40.5C 46.1667,40.5 45.8333,40.5 45.5,40.5C 44.7784,40.0825 44.2784,39.4158 44,38.5C 43.6174,39.056 43.1174,39.3893 42.5,39.5C 43.1031,35.8805 44.4365,35.5472 46.5,38.5 Z"/></g>
<g><path style="opacity:1" fill="#a67572" d="M 24.5,42.5 C 24.5,43.1667 24.5,43.8333 24.5,44.5C 23.2101,45.0577 22.3768,46.0577 22,47.5C 21.7216,46.5842 21.2216,45.9175 20.5,45.5C 21.0889,43.6481 21.7556,41.8148 22.5,40C 24.0613,39.8119 24.728,40.6453 24.5,42.5 Z"/></g>
<g><path style="opacity:1" fill="#e4d2cc" d="M 45.5,40.5 C 45.8333,40.5 46.1667,40.5 46.5,40.5C 48.9728,40.6043 49.6394,41.6043 48.5,43.5C 47.1451,42.8118 46.1451,41.8118 45.5,40.5 Z"/></g>
<g><path style="opacity:1" fill="#e8c0b8" d="M 52.5,45.5 C 51.6618,45.1583 51.3284,44.4916 51.5,43.5C 54.122,41.9915 56.4553,42.4915 58.5,45C 56.5273,45.4955 54.5273,45.6621 52.5,45.5 Z"/></g>
<g><path style="opacity:1" fill="#bd938d" d="M 46.5,46.5 C 46.1667,46.5 45.8333,46.5 45.5,46.5C 45.2172,45.7109 44.7172,45.0442 44,44.5C 43.8091,46.7078 43.3091,48.7078 42.5,50.5C 42.7947,48.2646 42.4614,46.2646 41.5,44.5C 41.3284,43.5084 41.6618,42.8417 42.5,42.5C 42.4346,42.9382 42.6012,43.2716 43,43.5C 43.3333,42.8333 43.6667,42.1667 44,41.5C 46.2903,42.8281 47.1236,44.4947 46.5,46.5 Z"/></g>
<g><path style="opacity:0.996" fill="#5c3736" d="M 66.5,16.5 C 70.3909,19.886 74.2242,23.5527 78,27.5C 82.4094,35.0141 83.5761,43.0141 81.5,51.5C 80.8333,52.1667 80.1667,52.8333 79.5,53.5C 78.391,53.4431 77.391,53.1098 76.5,52.5C 77.5074,44.2442 75.8407,36.5775 71.5,29.5C 71.8457,28.3044 72.3457,28.3044 73,29.5C 76.8704,36.3142 78.8704,43.6476 79,51.5C 80.0571,48.793 80.5571,45.9597 80.5,43C 80.2137,31.9242 75.2137,23.7575 65.5,18.5C 65.3284,17.5084 65.6618,16.8417 66.5,16.5 Z"/></g>
<g><path style="opacity:1" fill="#431c1c" d="M 41.5,44.5 C 42.4614,46.2646 42.7947,48.2646 42.5,50.5C 42.2648,51.0967 41.7648,51.4301 41,51.5C 38.9497,50.2088 36.783,49.7088 34.5,50C 37.5872,54.1263 36.5872,56.9597 31.5,58.5C 30.0413,58.4326 28.7079,58.7659 27.5,59.5C 26.1667,58.8333 24.8333,58.1667 23.5,57.5C 23.4208,56.0695 23.7542,54.7362 24.5,53.5C 23.3493,52.269 22.1827,52.269 21,53.5C 20.5065,55.1341 20.3398,56.8008 20.5,58.5C 20.1667,58.5 19.8333,58.5 19.5,58.5C 19.2941,54.1018 19.6274,49.7685 20.5,45.5C 21.2216,45.9175 21.7216,46.5842 22,47.5C 22.3768,46.0577 23.2101,45.0577 24.5,44.5C 24.5,43.8333 24.5,43.1667 24.5,42.5C 26.5543,39.7639 29.0543,37.4305 32,35.5C 32.3333,34.5 32.6667,33.5 33,32.5C 33.2117,34.7801 34.0451,36.7801 35.5,38.5C 33.5992,44.3687 35.5992,48.0353 41.5,49.5C 41.5,47.8333 41.5,46.1667 41.5,44.5 Z"/></g>
<g><path style="opacity:1" fill="#ac7e79" d="M 32.5,47.5 C 31.3915,46.71 30.0581,46.21 28.5,46C 29.448,45.5172 30.448,45.3505 31.5,45.5C 31.5,44.5 31.5,43.5 31.5,42.5C 31.81,41.2617 32.31,41.2617 33,42.5C 33.4017,43.8721 33.9017,45.2054 34.5,46.5C 34.0431,47.2975 33.3764,47.6309 32.5,47.5 Z"/></g>
<g><path style="opacity:1" fill="#e7cdc8" d="M 29.5,42.5 C 30.1667,42.5 30.8333,42.5 31.5,42.5C 31.5,43.5 31.5,44.5 31.5,45.5C 30.448,45.3505 29.448,45.5172 28.5,46C 30.0581,46.21 31.3915,46.71 32.5,47.5C 29.0434,47.7579 25.7101,48.2579 22.5,49C 23.5822,47.6703 24.2488,46.1703 24.5,44.5C 26.698,44.8799 28.3646,44.2132 29.5,42.5 Z"/></g>
<g><path style="opacity:1" fill="#c4948d" d="M 29.5,42.5 C 28.7611,42.631 28.0944,42.4643 27.5,42C 28.3052,40.0283 29.6385,38.5283 31.5,37.5C 31.8333,37.8333 32.1667,38.1667 32.5,38.5C 31.4756,39.8518 30.4756,41.1851 29.5,42.5 Z"/></g>
<g><path style="opacity:1" fill="#5f3937" d="M 45.5,46.5 C 46.2297,48.045 47.563,48.8784 49.5,49C 49.1667,49.3333 48.8333,49.6667 48.5,50C 50.8107,49.8446 53.144,49.8446 55.5,50C 57.4661,51.3466 57.7994,52.8466 56.5,54.5C 53.8646,50.7126 50.8646,50.5459 47.5,54C 50.2784,55.3919 53.2784,55.8919 56.5,55.5C 56.5,55.8333 56.5,56.1667 56.5,56.5C 56.1667,56.5 55.8333,56.5 55.5,56.5C 54.8333,56.5 54.1667,56.5 53.5,56.5C 52.1667,56.5 50.8333,56.5 49.5,56.5C 45.2202,55.4411 44.5536,53.2744 47.5,50C 46.552,49.5172 45.552,49.3505 44.5,49.5C 44.2627,48.209 44.596,47.209 45.5,46.5 Z"/></g>
<g><path style="opacity:1" fill="#f4e0db" d="M 45.5,46.5 C 44.596,47.209 44.2627,48.209 44.5,49.5C 45.552,49.3505 46.552,49.5172 47.5,50C 44.5536,53.2744 45.2202,55.4411 49.5,56.5C 49.4431,57.609 49.1098,58.609 48.5,59.5C 45.9512,59.3874 43.6179,60.0541 41.5,61.5C 39.5914,60.6518 37.5914,60.3184 35.5,60.5C 35.3379,62.5273 35.5045,64.5273 36,66.5C 36.3826,67.056 36.8826,67.3893 37.5,67.5C 40.4552,66.8413 43.4552,66.5079 46.5,66.5C 48.1993,66.4729 49.5326,65.8062 50.5,64.5C 52.6976,64.8751 54.6976,65.5418 56.5,66.5C 50.1562,69.2354 43.4895,70.5688 36.5,70.5C 33.0977,70.6576 29.7644,70.3242 26.5,69.5C 28.7625,68.1041 30.9291,66.4375 33,64.5C 33.7484,62.1599 33.2484,60.1599 31.5,58.5C 36.5872,56.9597 37.5872,54.1263 34.5,50C 36.783,49.7088 38.9497,50.2088 41,51.5C 41.7648,51.4301 42.2648,51.0967 42.5,50.5C 43.3091,48.7078 43.8091,46.7078 44,44.5C 44.7172,45.0442 45.2172,45.7109 45.5,46.5 Z"/></g>
<g><path style="opacity:1" fill="#ac7fa7" d="M 39.5,52.5 C 41.1992,52.3398 42.8659,52.5065 44.5,53C 43.7816,56.1782 41.4483,57.1782 37.5,56C 36.9515,54.4039 37.6182,53.2373 39.5,52.5 Z"/></g>
<g><path style="opacity:1" fill="#c99b92" d="M 56.5,54.5 C 56.5,54.8333 56.5,55.1667 56.5,55.5C 53.2784,55.8919 50.2784,55.3919 47.5,54C 50.8646,50.5459 53.8646,50.7126 56.5,54.5 Z"/></g>
<g><path style="opacity:1" fill="#c6978e" d="M 29.5,52.5 C 32.1834,52.2266 33.6834,53.2266 34,55.5C 31.3603,57.5235 28.527,57.8568 25.5,56.5C 27.188,55.4787 28.5213,54.1454 29.5,52.5 Z"/></g>
<g><path style="opacity:1" fill="#efb1ae" d="M 56.5,66.5 C 54.6976,65.5418 52.6976,64.8751 50.5,64.5C 50.5979,62.4471 49.9313,60.7804 48.5,59.5C 49.1098,58.609 49.4431,57.609 49.5,56.5C 50.8333,56.5 52.1667,56.5 53.5,56.5C 53.0508,58.9775 53.7175,60.9775 55.5,62.5C 58.0934,60.9292 59.0934,58.5959 58.5,55.5C 58.7394,53.5328 58.4061,51.6995 57.5,50C 59.1341,49.5065 60.8008,49.3398 62.5,49.5C 62.2505,52.0021 61.9172,54.5021 61.5,57C 64.9636,62.7264 63.2969,65.893 56.5,66.5 Z"/></g>
<g><path style="opacity:1" fill="#e8d6d1" d="M 72.5,64.5 C 72.5,66.5 72.5,68.5 72.5,70.5C 69.3567,70.969 67.0233,72.6356 65.5,75.5C 63.9826,75.5106 62.8159,76.1772 62,77.5C 62.9903,71.8612 64.157,66.1945 65.5,60.5C 68.4278,59.4086 70.5945,57.4086 72,54.5C 72.4983,57.8168 72.665,61.1501 72.5,64.5 Z"/></g>
<g><path style="opacity:1" fill="#6e769c" d="M 56.5,56.5 C 56.5,56.1667 56.5,55.8333 56.5,55.5C 57.1667,55.5 57.8333,55.5 58.5,55.5C 59.0934,58.5959 58.0934,60.9292 55.5,62.5C 53.7175,60.9775 53.0508,58.9775 53.5,56.5C 54.1667,56.5 54.8333,56.5 55.5,56.5C 54.3744,57.8583 54.3744,59.1916 55.5,60.5C 57.5339,59.4261 57.8672,58.0927 56.5,56.5 Z"/></g>
<g><path style="opacity:1" fill="#f4f3f4" d="M 55.5,56.5 C 55.8333,56.5 56.1667,56.5 56.5,56.5C 57.8672,58.0927 57.5339,59.4261 55.5,60.5C 54.3744,59.1916 54.3744,57.8583 55.5,56.5 Z"/></g>
<g><path style="opacity:1" fill="#deadaa" d="M 73.5,52.5 C 73.8168,56.7016 73.4834,60.7016 72.5,64.5C 72.665,61.1501 72.4983,57.8168 72,54.5C 70.5945,57.4086 68.4278,59.4086 65.5,60.5C 68.1253,57.9506 70.292,54.9506 72,51.5C 72.3826,52.056 72.8826,52.3893 73.5,52.5 Z"/></g>
<g><path style="opacity:1" fill="#f6b7b4" d="M 23.5,57.5 C 21.5369,61.2843 22.5369,63.1177 26.5,63C 27.3366,61.9887 27.67,60.8221 27.5,59.5C 28.7079,58.7659 30.0413,58.4326 31.5,58.5C 33.2484,60.1599 33.7484,62.1599 33,64.5C 30.9291,66.4375 28.7625,68.1041 26.5,69.5C 19.0658,68.4595 17.0658,64.7928 20.5,58.5C 20.3398,56.8008 20.5065,55.1341 21,53.5C 22.1827,52.269 23.3493,52.269 24.5,53.5C 23.7542,54.7362 23.4208,56.0695 23.5,57.5 Z"/></g>
<g><path style="opacity:1" fill="#979ebb" d="M 23.5,57.5 C 24.8333,58.1667 26.1667,58.8333 27.5,59.5C 27.67,60.8221 27.3366,61.9887 26.5,63C 22.5369,63.1177 21.5369,61.2843 23.5,57.5 Z"/></g>
<g><path style="opacity:1" fill="#fcb2af" d="M 46.5,66.5 C 43.4552,66.5079 40.4552,66.8413 37.5,67.5C 36.4639,65.6089 36.4639,63.7755 37.5,62C 41.0881,62.3739 44.7548,62.2072 48.5,61.5C 48.6347,63.5542 47.968,65.2209 46.5,66.5 Z"/></g>
<g><path style="opacity:1" fill="#b36469" d="M 48.5,59.5 C 49.9313,60.7804 50.5979,62.4471 50.5,64.5C 49.5326,65.8062 48.1993,66.4729 46.5,66.5C 47.968,65.2209 48.6347,63.5542 48.5,61.5C 44.7548,62.2072 41.0881,62.3739 37.5,62C 36.4639,63.7755 36.4639,65.6089 37.5,67.5C 36.8826,67.3893 36.3826,67.056 36,66.5C 35.5045,64.5273 35.3379,62.5273 35.5,60.5C 37.5914,60.3184 39.5914,60.6518 41.5,61.5C 43.6179,60.0541 45.9512,59.3874 48.5,59.5 Z"/></g>
<g><path style="opacity:0.755" fill="#370f11" d="M 30.5,17.5 C 25.5313,21.1048 20.6979,25.1048 16,29.5C 12.2194,33.8522 10.2194,38.8522 10,44.5C 11.4834,42.8808 12.65,42.7141 13.5,44C 11.9626,48.6575 12.2959,53.1575 14.5,57.5C 16.0697,59.3788 17.7363,59.7122 19.5,58.5C 19.8333,58.5 20.1667,58.5 20.5,58.5C 17.0658,64.7928 19.0658,68.4595 26.5,69.5C 29.7644,70.3242 33.0977,70.6576 36.5,70.5C 36.5,70.8333 36.5,71.1667 36.5,71.5C 35.5084,71.3284 34.8417,71.6618 34.5,72.5C 32.1782,73.8021 30.8449,75.8021 30.5,78.5C 28.7497,79.6594 27.7497,81.326 27.5,83.5C 25.684,85.1184 24.3507,87.1184 23.5,89.5C 20.7209,91.3021 20.8875,92.9688 24,94.5C 24.3333,94.1667 24.6667,93.8333 25,93.5C 25.6152,95.1161 26.6152,96.4495 28,97.5C 30.7612,93.6401 33.2612,89.6401 35.5,85.5C 36.1667,85.5 36.8333,85.5 37.5,85.5C 37.5,86.1667 37.8333,86.5 38.5,86.5C 38.5,87.1667 38.1667,87.5 37.5,87.5C 36.1667,87.8333 36.1667,88.1667 37.5,88.5C 37.5,88.8333 37.5,89.1667 37.5,89.5C 36.1667,90.5 36.1667,91.5 37.5,92.5C 36.8333,92.5 36.5,92.8333 36.5,93.5C 34.2712,95.0993 33.9378,97.0993 35.5,99.5C 34.5,99.5 33.5,99.5 32.5,99.5C 32.3949,94.3402 31.7283,94.3402 30.5,99.5C 29.5,99.5 28.5,99.5 27.5,99.5C 25.487,97.5026 23.1537,95.836 20.5,94.5C 17.7877,95.212 16.1211,96.8787 15.5,99.5C 14.8333,99.5 14.1667,99.5 13.5,99.5C 19.4375,91.6736 24.9375,83.3402 30,74.5C 30.6172,73.5509 30.4506,72.7175 29.5,72C 27.8988,71.7266 26.3988,71.2266 25,70.5C 24.5034,72.8098 24.3367,75.1432 24.5,77.5C 22.0885,77.8633 20.5885,76.8633 20,74.5C 19.5065,76.1341 19.3398,77.8008 19.5,79.5C 13.8829,79.3252 11.2162,76.3252 11.5,70.5C 12.0385,67.1408 12.7052,63.8074 13.5,60.5C 11.1237,56.5553 9.95705,52.222 10,47.5C 9.58605,47.9574 9.08605,48.2907 8.5,48.5C 7.1077,43.9701 7.6077,39.6368 10,35.5C 12.3301,31.6784 14.8301,28.0117 17.5,24.5C 18.5,24.1667 19.1667,23.5 19.5,22.5C 21.7772,21.5514 23.7772,20.2181 25.5,18.5C 27.1172,17.962 28.7839,17.6287 30.5,17.5 Z"/></g>
<g><path style="opacity:1" fill="#d59f9c" d="M 17.5,61.5 C 16.668,65.4969 18.168,68.1636 22,69.5C 22.6667,71.1667 22.6667,72.8333 22,74.5C 19.8709,69.2857 18.3709,69.6191 17.5,75.5C 16.1667,70.8333 16.1667,66.1667 17.5,61.5 Z"/></g>
<g><path style="opacity:1" fill="#decbc6" d="M 17.5,61.5 C 16.1667,66.1667 16.1667,70.8333 17.5,75.5C 17.2942,77.5492 16.4609,77.8825 15,76.5C 12.7531,70.891 13.2531,65.5577 16.5,60.5C 17.1067,60.6236 17.44,60.9569 17.5,61.5 Z"/></g>
<g><path style="opacity:1" fill="#c35259" d="M 34.5,72.5 C 34.8417,71.6618 35.5084,71.3284 36.5,71.5C 39.0821,71.0254 41.0821,71.6921 42.5,73.5C 42.6716,74.4916 42.3382,75.1583 41.5,75.5C 40.596,76.209 40.2627,77.209 40.5,78.5C 42.1667,78.5 43.8333,78.5 45.5,78.5C 44.5342,81.9915 44.8676,85.3249 46.5,88.5C 46.5,88.8333 46.5,89.1667 46.5,89.5C 42.0148,90.1521 40.3481,88.4854 41.5,84.5C 40.2078,81.7116 38.3745,79.3783 36,77.5C 35.6666,79.0468 36.1666,80.3801 37.5,81.5C 36.8201,82.8599 36.1534,84.1932 35.5,85.5C 33.2612,89.6401 30.7612,93.6401 28,97.5C 26.6152,96.4495 25.6152,95.1161 25,93.5C 24.6667,93.8333 24.3333,94.1667 24,94.5C 20.8875,92.9688 20.7209,91.3021 23.5,89.5C 25.7964,88.267 27.1298,86.267 27.5,83.5C 27.7497,81.326 28.7497,79.6594 30.5,78.5C 32.0331,76.6452 33.6997,74.8119 35.5,73C 35.2716,72.6012 34.9382,72.4346 34.5,72.5 Z"/></g>
<g><path style="opacity:0.798" fill="#360d0f" d="M 75.5,11.5 C 80.8786,17.2242 85.0452,23.8909 88,31.5C 90.1361,38.242 92.4695,44.9086 95,51.5C 96.6362,56.3751 97.4695,61.3751 97.5,66.5C 94.4545,66.6582 91.6212,65.9915 89,64.5C 87.1395,71.6277 82.9728,76.6277 76.5,79.5C 76.8254,74.4012 76.3254,69.4012 75,64.5C 74.5483,67.8772 73.8816,71.2105 73,74.5C 72.5,75.6667 71.6667,76.5 70.5,77C 73.0107,81.955 73.0107,86.955 70.5,92C 74.5305,92.3257 78.5305,92.3257 82.5,92C 84.8021,94.1121 86.4687,96.6121 87.5,99.5C 86.8333,99.5 86.1667,99.5 85.5,99.5C 84.323,94.3767 81.323,92.7101 76.5,94.5C 73.7212,94.2786 71.0545,94.612 68.5,95.5C 67.375,94.6522 67.375,93.6522 68.5,92.5C 70.553,87.8708 70.7196,83.2041 69,78.5C 68.5172,79.448 68.3505,80.448 68.5,81.5C 66.9373,82.9448 65.604,84.6115 64.5,86.5C 63.9569,86.44 63.6236,86.1067 63.5,85.5C 65.3631,83.1071 66.6965,80.4404 67.5,77.5C 67.2528,76.2867 66.5862,75.62 65.5,75.5C 67.0233,72.6356 69.3567,70.969 72.5,70.5C 72.5,68.5 72.5,66.5 72.5,64.5C 73.4834,60.7016 73.8168,56.7016 73.5,52.5C 73.5,51.8333 73.5,51.1667 73.5,50.5C 74.5,51.1667 75.5,51.8333 76.5,52.5C 77.391,53.1098 78.391,53.4431 79.5,53.5C 77.1779,60.9834 77.0113,68.6501 79,76.5C 79.7172,75.9558 80.2172,75.2891 80.5,74.5C 84.3617,71.4501 86.695,67.4501 87.5,62.5C 90.1667,63.1667 92.8333,63.8333 95.5,64.5C 92.4391,48.8186 87.2724,33.8186 80,19.5C 78.654,16.8207 76.654,14.8207 74,13.5C 71.5351,14.6513 69.0351,15.6513 66.5,16.5C 65.6618,16.8417 65.3284,17.5084 65.5,18.5C 58.2183,16.0507 50.8849,14.7174 43.5,14.5C 42.5,13.8333 41.5,13.1667 40.5,12.5C 41.8333,12.5 43.1667,12.5 44.5,12.5C 44.8333,12.5 45.1667,12.5 45.5,12.5C 47.1379,13.1589 48.8045,13.8256 50.5,14.5C 52.0709,13.6906 53.7376,13.3573 55.5,13.5C 58.2962,14.3068 61.1295,15.3068 64,16.5C 65.7947,15.2805 65.6281,14.2805 63.5,13.5C 64.5676,12.5655 65.901,12.2322 67.5,12.5C 68.1667,13.8333 68.8333,13.8333 69.5,12.5C 71.5,12.1667 73.5,11.8333 75.5,11.5 Z M 63.5,13.5 C 65.6281,14.2805 65.7947,15.2805 64,16.5C 61.1295,15.3068 58.2962,14.3068 55.5,13.5C 58.1367,12.3697 60.8033,12.3697 63.5,13.5 Z"/></g>
<g><path style="opacity:1" fill="#b57f7b" d="M 74.5,53.5 C 77.9229,54.4071 78.0896,56.0738 75,58.5C 74.5065,56.8659 74.3398,55.1992 74.5,53.5 Z"/></g>
<g><path style="opacity:1" fill="#e5a7a4" d="M 81.5,51.5 C 81.4038,59.1793 81.0705,66.846 80.5,74.5C 80.2172,75.2891 79.7172,75.9558 79,76.5C 77.0113,68.6501 77.1779,60.9834 79.5,53.5C 80.1667,52.8333 80.8333,52.1667 81.5,51.5 Z"/></g>
<g><path style="opacity:1" fill="#c69e9e" d="M 34.5,72.5 C 34.9382,72.4346 35.2716,72.6012 35.5,73C 33.6997,74.8119 32.0331,76.6452 30.5,78.5C 30.8449,75.8021 32.1782,73.8021 34.5,72.5 Z"/></g>
<g><path style="opacity:1" fill="#c0a9a8" d="M 41.5,75.5 C 42.3382,75.1583 42.6716,74.4916 42.5,73.5C 43.1174,73.3893 43.6174,73.056 44,72.5C 44.8837,74.6406 44.3837,76.3073 42.5,77.5C 41.7025,77.0431 41.3691,76.3764 41.5,75.5 Z"/></g>
<g><path style="opacity:1" fill="#441719" d="M 63.5,39.5 C 63.3338,45.8421 63.5005,52.1754 64,58.5C 67.6159,55.9397 70.2825,52.6064 72,48.5C 72.2784,49.4158 72.7784,50.0825 73.5,50.5C 73.5,51.1667 73.5,51.8333 73.5,52.5C 72.8826,52.3893 72.3826,52.056 72,51.5C 70.292,54.9506 68.1253,57.9506 65.5,60.5C 64.157,66.1945 62.9903,71.8612 62,77.5C 62.8159,76.1772 63.9826,75.5106 65.5,75.5C 64.4923,77.3386 62.9923,78.6719 61,79.5C 60.6271,81.6982 60.1271,83.8649 59.5,86C 59.9054,86.9454 60.572,87.6121 61.5,88C 58.6677,89.9076 59.001,90.741 62.5,90.5C 63.391,91.1098 64.391,91.4431 65.5,91.5C 66.391,92.1098 67.391,92.4431 68.5,92.5C 67.375,93.6522 67.375,94.6522 68.5,95.5C 68.2172,96.2891 67.7172,96.9558 67,97.5C 67.2978,93.7976 65.6311,92.131 62,92.5C 60.3189,92.6083 59.1522,93.2749 58.5,94.5C 57.9525,96.4847 56.9525,98.1514 55.5,99.5C 54.8333,99.5 54.1667,99.5 53.5,99.5C 54.5981,98.603 54.5981,97.7697 53.5,97C 50.3924,95.2415 47.059,94.4081 43.5,94.5C 43.6287,96.2161 43.962,97.8828 44.5,99.5C 43.8333,99.5 43.1667,99.5 42.5,99.5C 41.8565,96.1897 39.8565,94.1897 36.5,93.5C 36.5,92.8333 36.8333,92.5 37.5,92.5C 39.1703,92.7512 40.6703,93.4178 42,94.5C 42.8699,93.8921 43.3699,93.0588 43.5,92C 41.861,89.6619 39.861,88.8285 37.5,89.5C 37.5,89.1667 37.5,88.8333 37.5,88.5C 37.5,88.1667 37.5,87.8333 37.5,87.5C 38.1667,87.5 38.5,87.1667 38.5,86.5C 37.8333,86.5 37.5,86.1667 37.5,85.5C 36.8333,85.5 36.1667,85.5 35.5,85.5C 36.1534,84.1932 36.8201,82.8599 37.5,81.5C 36.1666,80.3801 35.6666,79.0468 36,77.5C 38.3745,79.3783 40.2078,81.7116 41.5,84.5C 40.3481,88.4854 42.0148,90.1521 46.5,89.5C 46.5858,90.4959 46.2524,91.3292 45.5,92C 48.9518,93.2257 52.2852,94.7257 55.5,96.5C 55.8333,96 56.1667,95.5 56.5,95C 54.9575,93.2871 53.2908,91.7871 51.5,90.5C 52.5,90.5 53.5,90.5 54.5,90.5C 55.172,91.2674 56.0053,91.9341 57,92.5C 58.1402,85.1099 59.6402,77.9433 61.5,71C 60.5291,69.5187 59.1958,68.6854 57.5,68.5C 56.391,68.5569 55.391,68.8902 54.5,69.5C 51.8733,70.1049 49.2066,70.6049 46.5,71C 45.5939,72.6995 45.2606,74.5328 45.5,76.5C 45.5,77.1667 45.5,77.8333 45.5,78.5C 43.8333,78.5 42.1667,78.5 40.5,78.5C 40.2627,77.209 40.596,76.209 41.5,75.5C 41.3691,76.3764 41.7025,77.0431 42.5,77.5C 44.3837,76.3073 44.8837,74.6406 44,72.5C 43.6174,73.056 43.1174,73.3893 42.5,73.5C 41.0821,71.6921 39.0821,71.0254 36.5,71.5C 36.5,71.1667 36.5,70.8333 36.5,70.5C 43.4895,70.5688 50.1562,69.2354 56.5,66.5C 63.2969,65.893 64.9636,62.7264 61.5,57C 61.9172,54.5021 62.2505,52.0021 62.5,49.5C 60.8008,49.3398 59.1341,49.5065 57.5,50C 58.4061,51.6995 58.7394,53.5328 58.5,55.5C 57.8333,55.5 57.1667,55.5 56.5,55.5C 56.5,55.1667 56.5,54.8333 56.5,54.5C 57.7994,52.8466 57.4661,51.3466 55.5,50C 53.144,49.8446 50.8107,49.8446 48.5,50C 48.8333,49.6667 49.1667,49.3333 49.5,49C 47.563,48.8784 46.2297,48.045 45.5,46.5C 45.8333,46.5 46.1667,46.5 46.5,46.5C 47.552,46.6495 48.552,46.4828 49.5,46C 48.8487,44.692 49.5154,43.8586 51.5,43.5C 51.3284,44.4916 51.6618,45.1583 52.5,45.5C 54.9664,46.6341 57.633,46.8007 60.5,46C 59.944,45.6174 59.6107,45.1174 59.5,44.5C 60.4959,44.4142 61.3292,44.7476 62,45.5C 62.1909,43.2922 62.6909,41.2922 63.5,39.5 Z"/></g>
<g><path style="opacity:1" fill="#bf4e56" d="M 54.5,69.5 C 54.5,72.1667 54.5,74.8333 54.5,77.5C 53.2686,81.6802 52.2686,86.0136 51.5,90.5C 53.2908,91.7871 54.9575,93.2871 56.5,95C 56.1667,95.5 55.8333,96 55.5,96.5C 52.2852,94.7257 48.9518,93.2257 45.5,92C 46.2524,91.3292 46.5858,90.4959 46.5,89.5C 49.2521,84.2422 50.4187,78.5755 50,72.5C 49.1153,75.9523 48.282,79.2856 47.5,82.5C 47.405,80.2143 46.7384,78.2143 45.5,76.5C 45.2606,74.5328 45.5939,72.6995 46.5,71C 49.2066,70.6049 51.8733,70.1049 54.5,69.5 Z"/></g>
<g><path style="opacity:1" fill="#d5b7b9" d="M 57.5,68.5 C 57.815,72.3714 57.4816,76.0381 56.5,79.5C 56.5,78.1667 55.8333,77.5 54.5,77.5C 54.5,74.8333 54.5,72.1667 54.5,69.5C 55.391,68.8902 56.391,68.5569 57.5,68.5 Z"/></g>
<g><path style="opacity:1" fill="#ae454c" d="M 65.5,75.5 C 66.5862,75.62 67.2528,76.2867 67.5,77.5C 66.6965,80.4404 65.3631,83.1071 63.5,85.5C 63.6236,86.1067 63.9569,86.44 64.5,86.5C 63.8333,87.8333 63.1667,89.1667 62.5,90.5C 59.001,90.741 58.6677,89.9076 61.5,88C 60.572,87.6121 59.9054,86.9454 59.5,86C 60.1271,83.8649 60.6271,81.6982 61,79.5C 62.9923,78.6719 64.4923,77.3386 65.5,75.5 Z"/></g>
<g><path style="opacity:1" fill="#faefef" d="M 54.5,77.5 C 55.8333,77.5 56.5,78.1667 56.5,79.5C 55.6745,83.1359 55.0078,86.8026 54.5,90.5C 53.5,90.5 52.5,90.5 51.5,90.5C 52.2686,86.0136 53.2686,81.6802 54.5,77.5 Z"/></g>
<g><path style="opacity:1" fill="#d55f67" d="M 57.5,68.5 C 59.1958,68.6854 60.5291,69.5187 61.5,71C 59.6402,77.9433 58.1402,85.1099 57,92.5C 56.0053,91.9341 55.172,91.2674 54.5,90.5C 55.0078,86.8026 55.6745,83.1359 56.5,79.5C 57.4816,76.0381 57.815,72.3714 57.5,68.5 Z"/></g>
<g><path style="opacity:0.996" fill="#521b1e" d="M 46.5,89.5 C 46.5,89.1667 46.5,88.8333 46.5,88.5C 46.8333,86.5 47.1667,84.5 47.5,82.5C 48.282,79.2856 49.1153,75.9523 50,72.5C 50.4187,78.5755 49.2521,84.2422 46.5,89.5 Z"/></g>
<g><path style="opacity:1" fill="#ddb7b6" d="M 27.5,83.5 C 27.1298,86.267 25.7964,88.267 23.5,89.5C 24.3507,87.1184 25.684,85.1184 27.5,83.5 Z"/></g>
<g><path style="opacity:1" fill="#dcb4b4" d="M 45.5,76.5 C 46.7384,78.2143 47.405,80.2143 47.5,82.5C 47.1667,84.5 46.8333,86.5 46.5,88.5C 44.8676,85.3249 44.5342,81.9915 45.5,78.5C 45.5,77.8333 45.5,77.1667 45.5,76.5 Z"/></g>
<g><path style="opacity:1" fill="#d35e65" d="M 68.5,92.5 C 67.391,92.4431 66.391,92.1098 65.5,91.5C 67.6498,88.528 68.6498,85.1947 68.5,81.5C 68.3505,80.448 68.5172,79.448 69,78.5C 70.7196,83.2041 70.553,87.8708 68.5,92.5 Z"/></g>
<g><path style="opacity:1" fill="#eedfde" d="M 68.5,81.5 C 68.6498,85.1947 67.6498,88.528 65.5,91.5C 64.391,91.4431 63.391,91.1098 62.5,90.5C 63.1667,89.1667 63.8333,87.8333 64.5,86.5C 65.604,84.6115 66.9373,82.9448 68.5,81.5 Z"/></g>
<g><path style="opacity:1" fill="#b6474f" d="M 37.5,92.5 C 36.1667,91.5 36.1667,90.5 37.5,89.5C 39.861,88.8285 41.861,89.6619 43.5,92C 43.3699,93.0588 42.8699,93.8921 42,94.5C 40.6703,93.4178 39.1703,92.7512 37.5,92.5 Z"/></g>
<g><path style="opacity:1" fill="#fcece7" d="M 58.5,94.5 C 60.5914,94.3184 62.5914,94.6518 64.5,95.5C 65.6256,96.8084 65.6256,98.1417 64.5,99.5C 61.5,99.5 58.5,99.5 55.5,99.5C 56.9525,98.1514 57.9525,96.4847 58.5,94.5 Z"/></g>
<g><path style="opacity:1" fill="#f4ddd8" d="M 36.5,93.5 C 39.8565,94.1897 41.8565,96.1897 42.5,99.5C 40.1667,99.5 37.8333,99.5 35.5,99.5C 33.9378,97.0993 34.2712,95.0993 36.5,93.5 Z"/></g>
<g><path style="opacity:1" fill="#e3c8c3" d="M 53.5,99.5 C 50.5,99.5 47.5,99.5 44.5,99.5C 43.962,97.8828 43.6287,96.2161 43.5,94.5C 47.059,94.4081 50.3924,95.2415 53.5,97C 54.5981,97.7697 54.5981,98.603 53.5,99.5 Z"/></g>
<g><path style="opacity:1" fill="#dea9a0" d="M 68.5,95.5 C 71.0545,94.612 73.7212,94.2786 76.5,94.5C 79.2589,94.9333 80.5922,96.6 80.5,99.5C 75.1667,99.5 69.8333,99.5 64.5,99.5C 65.6256,98.1417 65.6256,96.8084 64.5,95.5C 62.5914,94.6518 60.5914,94.3184 58.5,94.5C 59.1522,93.2749 60.3189,92.6083 62,92.5C 65.6311,92.131 67.2978,93.7976 67,97.5C 67.7172,96.9558 68.2172,96.2891 68.5,95.5 Z"/></g>
<g><path style="opacity:0.996" fill="#9e6766" d="M 85.5,99.5 C 83.8333,99.5 82.1667,99.5 80.5,99.5C 80.5922,96.6 79.2589,94.9333 76.5,94.5C 81.323,92.7101 84.323,94.3767 85.5,99.5 Z"/></g>
<g><path style="opacity:1" fill="#e2bbb6" d="M 27.5,99.5 C 23.5,99.5 19.5,99.5 15.5,99.5C 16.1211,96.8787 17.7877,95.212 20.5,94.5C 23.1537,95.836 25.487,97.5026 27.5,99.5 Z"/></g>
</svg>
